<svg preserveAspectRatio="none" width="100%" height="100%" overflow="visible" style="display: block;" viewBox="0 0 55 56" fill="none" xmlns="http://www.w3.org/2000/svg">
<g id="Margin">
<path id="Icon" d="M13.75 48C9.95833 48 6.71875 46.6875 4.03125 44.0625C1.34375 41.4375 0 38.2292 0 34.4375C0 31.1875 0.979167 28.2917 2.9375 25.75C4.89583 23.2083 7.45833 21.5833 10.625 20.875C11.6667 17.0417 13.75 13.9375 16.875 11.5625C20 9.1875 23.5417 8 27.5 8C32.375 8 36.5104 9.69792 39.9062 13.0938C43.3021 16.4896 45 20.625 45 25.5V25.5V25.5C47.875 25.8333 50.2604 27.0729 52.1562 29.2188C54.0521 31.3646 55 33.875 55 36.75C55 39.875 53.9062 42.5312 51.7188 44.7188C49.5312 46.9062 46.875 48 43.75 48H13.75V48" fill="#00DAF3"/>
</g>
</svg>
